<svg xmlns="http://www.w3.org/2000/svg" xmlns:xlink="http://www.w3.org/1999/xlink" width="204" zoomAndPan="magnify" viewBox="0 0 153 49.499998" height="66" preserveAspectRatio="xMidYMid meet" version="1.0"><defs><g/><clipPath id="1aa3a27d6d"><path d="M 0.765625 0 L 152.234375 0 L 152.234375 49.003906 L 0.765625 49.003906 Z M 0.765625 0 " clip-rule="nonzero"/></clipPath><clipPath id="f18e93a512"><path d="M 1.460938 0.09375 L 151.492188 0.09375 L 151.492188 48.410156 L 1.460938 48.410156 Z M 1.460938 0.09375 " clip-rule="nonzero"/></clipPath><clipPath id="24a7dced14"><path d="M 142.386719 48.410156 L 10.566406 48.410156 C 5.550781 48.410156 1.460938 44.324219 1.460938 39.304688 L 1.460938 9.199219 C 1.460938 4.179688 5.550781 0.09375 10.566406 0.09375 L 142.386719 0.09375 C 147.40625 0.09375 151.492188 4.179688 151.492188 9.199219 L 151.492188 39.304688 C 151.492188 44.324219 147.40625 48.410156 142.386719 48.410156 Z M 142.386719 48.410156 " clip-rule="nonzero"/></clipPath><clipPath id="fe03efbd8e"><path d="M 11.144531 16 L 36.390625 16 L 36.390625 38.457031 L 11.144531 38.457031 Z M 11.144531 16 " clip-rule="nonzero"/></clipPath><clipPath id="7694d2da70"><path d="M 23 9.5 L 30 9.5 L 30 17 L 23 17 Z M 23 9.5 " clip-rule="nonzero"/></clipPath></defs><g clip-path="url(#1aa3a27d6d)"><path fill="#ffffff" d="M 0.765625 0 L 152.234375 0 L 152.234375 49.003906 L 0.765625 49.003906 Z M 0.765625 0 " fill-opacity="1" fill-rule="nonzero"/></g><g clip-path="url(#f18e93a512)"><g clip-path="url(#24a7dced14)"><path fill="#ffffff" d="M 1.460938 0.09375 L 151.492188 0.09375 L 151.492188 48.410156 L 1.460938 48.410156 Z M 1.460938 0.09375 " fill-opacity="1" fill-rule="nonzero"/></g></g><g fill="#000000" fill-opacity="1"><g transform="translate(46.680543, 21.28206)"><g><path d="M 5.625 -4.40625 L 9.765625 -4.40625 L 9.765625 0 L 9.125 0 L 8.890625 -1.4375 C 8.566406 -0.988281 8.101562 -0.609375 7.5 -0.296875 C 6.90625 0.00390625 6.191406 0.15625 5.359375 0.15625 C 4.503906 0.15625 3.71875 -0.046875 3 -0.453125 C 2.289062 -0.867188 1.726562 -1.429688 1.3125 -2.140625 C 0.894531 -2.859375 0.6875 -3.644531 0.6875 -4.5 C 0.6875 -5.363281 0.894531 -6.148438 1.3125 -6.859375 C 1.726562 -7.578125 2.296875 -8.140625 3.015625 -8.546875 C 3.742188 -8.960938 4.539062 -9.171875 5.40625 -9.171875 C 6.125 -9.171875 6.773438 -9.035156 7.359375 -8.765625 C 7.941406 -8.492188 8.421875 -8.132812 8.796875 -7.6875 C 9.179688 -7.238281 9.453125 -6.757812 9.609375 -6.25 L 8.640625 -6.25 C 8.035156 -7.59375 6.957031 -8.265625 5.40625 -8.265625 C 4.707031 -8.265625 4.070312 -8.101562 3.5 -7.78125 C 2.925781 -7.46875 2.472656 -7.023438 2.140625 -6.453125 C 1.816406 -5.878906 1.65625 -5.226562 1.65625 -4.5 C 1.65625 -3.769531 1.816406 -3.117188 2.140625 -2.546875 C 2.472656 -1.984375 2.925781 -1.539062 3.5 -1.21875 C 4.070312 -0.90625 4.707031 -0.75 5.40625 -0.75 C 6.050781 -0.75 6.625 -0.859375 7.125 -1.078125 C 7.625 -1.304688 8.019531 -1.628906 8.3125 -2.046875 C 8.613281 -2.472656 8.78125 -2.96875 8.8125 -3.53125 L 5.625 -3.53125 Z M 5.625 -4.40625 "/></g></g></g><g fill="#000000" fill-opacity="1"><g transform="translate(57.217761, 21.28206)"><g><path d="M 7.421875 -3.40625 C 7.421875 -3.175781 7.398438 -2.96875 7.359375 -2.78125 L 1.578125 -2.78125 C 1.671875 -2.132812 1.945312 -1.625 2.40625 -1.25 C 2.875 -0.875 3.441406 -0.6875 4.109375 -0.6875 C 5.078125 -0.6875 5.785156 -1.015625 6.234375 -1.671875 L 7.15625 -1.671875 C 6.925781 -1.128906 6.539062 -0.6875 6 -0.34375 C 5.457031 -0.0078125 4.8125 0.15625 4.0625 0.15625 C 3.445312 0.15625 2.878906 0.015625 2.359375 -0.265625 C 1.835938 -0.546875 1.421875 -0.941406 1.109375 -1.453125 C 0.804688 -1.972656 0.65625 -2.5625 0.65625 -3.21875 C 0.65625 -3.863281 0.8125 -4.441406 1.125 -4.953125 C 1.445312 -5.472656 1.867188 -5.875 2.390625 -6.15625 C 2.921875 -6.445312 3.484375 -6.59375 4.078125 -6.59375 C 4.671875 -6.59375 5.222656 -6.453125 5.734375 -6.171875 C 6.253906 -5.890625 6.664062 -5.503906 6.96875 -5.015625 C 7.269531 -4.523438 7.421875 -3.988281 7.421875 -3.40625 Z M 4.0625 -5.75 C 3.65625 -5.75 3.269531 -5.660156 2.90625 -5.484375 C 2.550781 -5.304688 2.253906 -5.050781 2.015625 -4.71875 C 1.773438 -4.394531 1.628906 -4.023438 1.578125 -3.609375 L 6.53125 -3.609375 C 6.488281 -4.003906 6.351562 -4.363281 6.125 -4.6875 C 5.90625 -5.019531 5.613281 -5.28125 5.25 -5.46875 C 4.882812 -5.65625 4.488281 -5.75 4.0625 -5.75 Z M 4.0625 -5.75 "/></g></g></g><g fill="#000000" fill-opacity="1"><g transform="translate(65.040247, 21.28206)"><g><path d="M 3.921875 0.15625 C 3.273438 0.15625 2.757812 -0.046875 2.375 -0.453125 C 1.988281 -0.859375 1.796875 -1.421875 1.796875 -2.140625 L 1.796875 -5.59375 L 0.390625 -5.59375 L 0.390625 -6.4375 L 1.109375 -6.4375 C 1.660156 -6.4375 1.9375 -6.710938 1.9375 -7.265625 L 1.9375 -8.15625 L 2.6875 -8.15625 L 2.6875 -6.4375 L 4.6875 -6.4375 L 4.6875 -5.59375 L 2.6875 -5.59375 L 2.6875 -2.140625 C 2.6875 -1.660156 2.796875 -1.296875 3.015625 -1.046875 C 3.234375 -0.804688 3.550781 -0.6875 3.96875 -0.6875 C 4.226562 -0.6875 4.46875 -0.738281 4.6875 -0.84375 L 4.6875 -0.015625 C 4.46875 0.0976562 4.210938 0.15625 3.921875 0.15625 Z M 3.921875 0.15625 "/></g></g></g><g fill="#000000" fill-opacity="1"><g transform="translate(70.096531, 21.28206)"><g/></g></g><g fill="#000000" fill-opacity="1"><g transform="translate(73.44163, 21.28206)"><g><path d="M 2.015625 0 L 1.125 0 L 1.125 -6.4375 L 2.015625 -6.4375 Z M 1.5625 -7.421875 C 1.375 -7.421875 1.21875 -7.476562 1.09375 -7.59375 C 0.976562 -7.71875 0.921875 -7.863281 0.921875 -8.03125 C 0.921875 -8.207031 0.976562 -8.351562 1.09375 -8.46875 C 1.21875 -8.59375 1.375 -8.65625 1.5625 -8.65625 C 1.75 -8.65625 1.898438 -8.59375 2.015625 -8.46875 C 2.140625 -8.351562 2.203125 -8.207031 2.203125 -8.03125 C 2.203125 -7.863281 2.140625 -7.71875 2.015625 -7.59375 C 1.898438 -7.476562 1.75 -7.421875 1.5625 -7.421875 Z M 1.5625 -7.421875 "/></g></g></g><g fill="#000000" fill-opacity="1"><g transform="translate(76.32355, 21.28206)"><g><path d="M 3.921875 0.15625 C 3.273438 0.15625 2.757812 -0.046875 2.375 -0.453125 C 1.988281 -0.859375 1.796875 -1.421875 1.796875 -2.140625 L 1.796875 -5.59375 L 0.390625 -5.59375 L 0.390625 -6.4375 L 1.109375 -6.4375 C 1.660156 -6.4375 1.9375 -6.710938 1.9375 -7.265625 L 1.9375 -8.15625 L 2.6875 -8.15625 L 2.6875 -6.4375 L 4.6875 -6.4375 L 4.6875 -5.59375 L 2.6875 -5.59375 L 2.6875 -2.140625 C 2.6875 -1.660156 2.796875 -1.296875 3.015625 -1.046875 C 3.234375 -0.804688 3.550781 -0.6875 3.96875 -0.6875 C 4.226562 -0.6875 4.46875 -0.738281 4.6875 -0.84375 L 4.6875 -0.015625 C 4.46875 0.0976562 4.210938 0.15625 3.921875 0.15625 Z M 3.921875 0.15625 "/></g></g></g><g fill="#000000" fill-opacity="1"><g transform="translate(81.379834, 21.28206)"><g/></g></g><g fill="#000000" fill-opacity="1"><g transform="translate(84.724933, 21.28206)"><g><path d="M 4.109375 0.15625 C 3.492188 0.15625 2.921875 0.015625 2.390625 -0.265625 C 1.859375 -0.554688 1.4375 -0.957031 1.125 -1.46875 C 0.8125 -1.988281 0.65625 -2.570312 0.65625 -3.21875 C 0.65625 -3.863281 0.8125 -4.441406 1.125 -4.953125 C 1.4375 -5.472656 1.859375 -5.875 2.390625 -6.15625 C 2.921875 -6.445312 3.492188 -6.59375 4.109375 -6.59375 C 4.722656 -6.59375 5.296875 -6.445312 5.828125 -6.15625 C 6.359375 -5.875 6.78125 -5.472656 7.09375 -4.953125 C 7.40625 -4.441406 7.5625 -3.863281 7.5625 -3.21875 C 7.5625 -2.570312 7.40625 -1.988281 7.09375 -1.46875 C 6.78125 -0.957031 6.359375 -0.554688 5.828125 -0.265625 C 5.296875 0.015625 4.722656 0.15625 4.109375 0.15625 Z M 4.109375 -0.6875 C 4.566406 -0.6875 4.988281 -0.789062 5.375 -1 C 5.769531 -1.21875 6.082031 -1.519531 6.3125 -1.90625 C 6.539062 -2.289062 6.65625 -2.726562 6.65625 -3.21875 C 6.65625 -3.707031 6.539062 -4.144531 6.3125 -4.53125 C 6.082031 -4.914062 5.769531 -5.210938 5.375 -5.421875 C 4.988281 -5.640625 4.566406 -5.75 4.109375 -5.75 C 3.640625 -5.75 3.207031 -5.640625 2.8125 -5.421875 C 2.425781 -5.210938 2.117188 -4.914062 1.890625 -4.53125 C 1.671875 -4.144531 1.5625 -3.707031 1.5625 -3.21875 C 1.5625 -2.726562 1.671875 -2.289062 1.890625 -1.90625 C 2.117188 -1.519531 2.425781 -1.21875 2.8125 -1 C 3.207031 -0.789062 3.640625 -0.6875 4.109375 -0.6875 Z M 4.109375 -0.6875 "/></g></g></g><g fill="#000000" fill-opacity="1"><g transform="translate(92.676079, 21.28206)"><g><path d="M 1.125 0 L 1.125 -6.4375 L 1.796875 -6.4375 L 2.015625 -5.5625 L 2.078125 -5.5625 C 2.273438 -5.84375 2.566406 -6.082031 2.953125 -6.28125 C 3.347656 -6.488281 3.828125 -6.59375 4.390625 -6.59375 C 4.953125 -6.59375 5.460938 -6.460938 5.921875 -6.203125 C 6.378906 -5.953125 6.734375 -5.59375 6.984375 -5.125 C 7.242188 -4.65625 7.375 -4.109375 7.375 -3.484375 L 7.375 0 L 6.46875 0 L 6.46875 -3.453125 C 6.46875 -4.171875 6.269531 -4.734375 5.875 -5.140625 C 5.488281 -5.546875 4.960938 -5.75 4.296875 -5.75 C 3.597656 -5.75 3.039062 -5.546875 2.625 -5.140625 C 2.21875 -4.734375 2.015625 -4.171875 2.015625 -3.453125 L 2.015625 0 Z M 1.125 0 "/></g></g></g><g fill="#000000" fill-opacity="1"><g transform="translate(100.845946, 21.28206)"><g/></g></g><g fill="#000000" fill-opacity="1"><g transform="translate(104.191048, 21.28206)"><g><path d="M 3.921875 0.15625 C 3.273438 0.15625 2.757812 -0.046875 2.375 -0.453125 C 1.988281 -0.859375 1.796875 -1.421875 1.796875 -2.140625 L 1.796875 -5.59375 L 0.390625 -5.59375 L 0.390625 -6.4375 L 1.109375 -6.4375 C 1.660156 -6.4375 1.9375 -6.710938 1.9375 -7.265625 L 1.9375 -8.15625 L 2.6875 -8.15625 L 2.6875 -6.4375 L 4.6875 -6.4375 L 4.6875 -5.59375 L 2.6875 -5.59375 L 2.6875 -2.140625 C 2.6875 -1.660156 2.796875 -1.296875 3.015625 -1.046875 C 3.234375 -0.804688 3.550781 -0.6875 3.96875 -0.6875 C 4.226562 -0.6875 4.46875 -0.738281 4.6875 -0.84375 L 4.6875 -0.015625 C 4.46875 0.0976562 4.210938 0.15625 3.921875 0.15625 Z M 3.921875 0.15625 "/></g></g></g><g fill="#000000" fill-opacity="1"><g transform="translate(109.247335, 21.28206)"><g><path d="M 1.1875 0 L 1.1875 -9.015625 L 2.078125 -9.015625 L 2.078125 -5.5625 L 2.15625 -5.5625 C 2.351562 -5.84375 2.644531 -6.082031 3.03125 -6.28125 C 3.414062 -6.488281 3.890625 -6.59375 4.453125 -6.59375 C 5.015625 -6.59375 5.523438 -6.460938 5.984375 -6.203125 C 6.441406 -5.953125 6.796875 -5.59375 7.046875 -5.125 C 7.304688 -4.65625 7.4375 -4.109375 7.4375 -3.484375 L 7.4375 0 L 6.546875 0 L 6.546875 -3.453125 C 6.546875 -4.171875 6.347656 -4.734375 5.953125 -5.140625 C 5.554688 -5.546875 5.023438 -5.75 4.359375 -5.75 C 3.671875 -5.75 3.117188 -5.546875 2.703125 -5.140625 C 2.285156 -4.734375 2.078125 -4.171875 2.078125 -3.453125 L 2.078125 0 Z M 1.1875 0 "/></g></g></g><g fill="#000000" fill-opacity="1"><g transform="translate(117.481532, 21.28206)"><g><path d="M 7.421875 -3.40625 C 7.421875 -3.175781 7.398438 -2.96875 7.359375 -2.78125 L 1.578125 -2.78125 C 1.671875 -2.132812 1.945312 -1.625 2.40625 -1.25 C 2.875 -0.875 3.441406 -0.6875 4.109375 -0.6875 C 5.078125 -0.6875 5.785156 -1.015625 6.234375 -1.671875 L 7.15625 -1.671875 C 6.925781 -1.128906 6.539062 -0.6875 6 -0.34375 C 5.457031 -0.0078125 4.8125 0.15625 4.0625 0.15625 C 3.445312 0.15625 2.878906 0.015625 2.359375 -0.265625 C 1.835938 -0.546875 1.421875 -0.941406 1.109375 -1.453125 C 0.804688 -1.972656 0.65625 -2.5625 0.65625 -3.21875 C 0.65625 -3.863281 0.8125 -4.441406 1.125 -4.953125 C 1.445312 -5.472656 1.867188 -5.875 2.390625 -6.15625 C 2.921875 -6.445312 3.484375 -6.59375 4.078125 -6.59375 C 4.671875 -6.59375 5.222656 -6.453125 5.734375 -6.171875 C 6.253906 -5.890625 6.664062 -5.503906 6.96875 -5.015625 C 7.269531 -4.523438 7.421875 -3.988281 7.421875 -3.40625 Z M 4.0625 -5.75 C 3.65625 -5.75 3.269531 -5.660156 2.90625 -5.484375 C 2.550781 -5.304688 2.253906 -5.050781 2.015625 -4.71875 C 1.773438 -4.394531 1.628906 -4.023438 1.578125 -3.609375 L 6.53125 -3.609375 C 6.488281 -4.003906 6.351562 -4.363281 6.125 -4.6875 C 5.90625 -5.019531 5.613281 -5.28125 5.25 -5.46875 C 4.882812 -5.65625 4.488281 -5.75 4.0625 -5.75 Z M 4.0625 -5.75 "/></g></g></g><g fill="#000000" fill-opacity="1"><g transform="translate(46.680543, 35.389559)"><g><path d="M 9.78125 0 L 7.703125 0 L 6.953125 -1.796875 L 2.8125 -1.796875 L 2.078125 0 L 0.046875 0 L 3.984375 -9.015625 L 5.84375 -9.015625 Z M 6.1875 -3.625 L 4.875 -6.625 L 3.59375 -3.625 Z M 6.1875 -3.625 "/></g></g></g><g fill="#000000" fill-opacity="1"><g transform="translate(56.252815, 35.389559)"><g><path d="M 0.921875 2.3125 L 0.921875 -6.5625 L 2.34375 -6.5625 L 2.625 -5.921875 L 2.6875 -5.921875 C 3.289062 -6.484375 4.054688 -6.765625 4.984375 -6.765625 C 5.628906 -6.765625 6.21875 -6.613281 6.75 -6.3125 C 7.28125 -6.007812 7.695312 -5.59375 8 -5.0625 C 8.3125 -4.539062 8.46875 -3.945312 8.46875 -3.28125 C 8.46875 -2.625 8.3125 -2.03125 8 -1.5 C 7.695312 -0.96875 7.28125 -0.550781 6.75 -0.25 C 6.21875 0.0390625 5.628906 0.1875 4.984375 0.1875 C 4.472656 0.1875 4.039062 0.113281 3.6875 -0.03125 C 3.34375 -0.1875 3.066406 -0.363281 2.859375 -0.5625 L 2.796875 -0.5625 L 2.796875 2.3125 Z M 4.703125 -1.5 C 5.242188 -1.5 5.695312 -1.664062 6.0625 -2 C 6.425781 -2.34375 6.609375 -2.769531 6.609375 -3.28125 C 6.609375 -3.800781 6.425781 -4.226562 6.0625 -4.5625 C 5.695312 -4.90625 5.242188 -5.078125 4.703125 -5.078125 C 4.160156 -5.078125 3.707031 -4.90625 3.34375 -4.5625 C 2.976562 -4.226562 2.796875 -3.800781 2.796875 -3.28125 C 2.796875 -2.769531 2.976562 -2.34375 3.34375 -2 C 3.707031 -1.664062 4.160156 -1.5 4.703125 -1.5 Z M 4.703125 -1.5 "/></g></g></g><g fill="#000000" fill-opacity="1"><g transform="translate(65.001658, 35.389559)"><g><path d="M 0.921875 2.3125 L 0.921875 -6.5625 L 2.34375 -6.5625 L 2.625 -5.921875 L 2.6875 -5.921875 C 3.289062 -6.484375 4.054688 -6.765625 4.984375 -6.765625 C 5.628906 -6.765625 6.21875 -6.613281 6.75 -6.3125 C 7.28125 -6.007812 7.695312 -5.59375 8 -5.0625 C 8.3125 -4.539062 8.46875 -3.945312 8.46875 -3.28125 C 8.46875 -2.625 8.3125 -2.03125 8 -1.5 C 7.695312 -0.96875 7.28125 -0.550781 6.75 -0.25 C 6.21875 0.0390625 5.628906 0.1875 4.984375 0.1875 C 4.472656 0.1875 4.039062 0.113281 3.6875 -0.03125 C 3.34375 -0.1875 3.066406 -0.363281 2.859375 -0.5625 L 2.796875 -0.5625 L 2.796875 2.3125 Z M 4.703125 -1.5 C 5.242188 -1.5 5.695312 -1.664062 6.0625 -2 C 6.425781 -2.34375 6.609375 -2.769531 6.609375 -3.28125 C 6.609375 -3.800781 6.425781 -4.226562 6.0625 -4.5625 C 5.695312 -4.90625 5.242188 -5.078125 4.703125 -5.078125 C 4.160156 -5.078125 3.707031 -4.90625 3.34375 -4.5625 C 2.976562 -4.226562 2.796875 -3.800781 2.796875 -3.28125 C 2.796875 -2.769531 2.976562 -2.34375 3.34375 -2 C 3.707031 -1.664062 4.160156 -1.5 4.703125 -1.5 Z M 4.703125 -1.5 "/></g></g></g><g fill="#000000" fill-opacity="1"><g transform="translate(73.750502, 35.389559)"><g/></g></g><g fill="#000000" fill-opacity="1"><g transform="translate(77.35292, 35.389559)"><g><path d="M 4.578125 0.1875 C 3.753906 0.1875 3.046875 0.0507812 2.453125 -0.21875 C 1.859375 -0.488281 1.398438 -0.851562 1.078125 -1.3125 C 0.753906 -1.78125 0.578125 -2.289062 0.546875 -2.84375 L 2.5 -2.84375 C 2.582031 -2.4375 2.800781 -2.113281 3.15625 -1.875 C 3.507812 -1.632812 4 -1.515625 4.625 -1.515625 C 5.269531 -1.515625 5.734375 -1.597656 6.015625 -1.765625 C 6.296875 -1.929688 6.4375 -2.148438 6.4375 -2.421875 C 6.4375 -2.734375 6.265625 -2.972656 5.921875 -3.140625 C 5.578125 -3.316406 5.050781 -3.492188 4.34375 -3.671875 C 3.601562 -3.859375 2.992188 -4.046875 2.515625 -4.234375 C 2.046875 -4.421875 1.640625 -4.707031 1.296875 -5.09375 C 0.960938 -5.476562 0.796875 -5.984375 0.796875 -6.609375 C 0.796875 -7.109375 0.929688 -7.550781 1.203125 -7.9375 C 1.472656 -8.320312 1.878906 -8.628906 2.421875 -8.859375 C 2.972656 -9.085938 3.640625 -9.203125 4.421875 -9.203125 C 5.191406 -9.203125 5.859375 -9.078125 6.421875 -8.828125 C 6.984375 -8.578125 7.414062 -8.226562 7.71875 -7.78125 C 8.019531 -7.34375 8.191406 -6.832031 8.234375 -6.25 L 6.265625 -6.25 C 6.222656 -6.601562 6.039062 -6.898438 5.71875 -7.140625 C 5.394531 -7.378906 4.957031 -7.5 4.40625 -7.5 C 3.863281 -7.5 3.453125 -7.40625 3.171875 -7.21875 C 2.890625 -7.03125 2.75 -6.800781 2.75 -6.53125 C 2.75 -6.21875 2.914062 -5.984375 3.25 -5.828125 C 3.59375 -5.671875 4.113281 -5.515625 4.8125 -5.359375 C 5.550781 -5.171875 6.160156 -4.988281 6.640625 -4.8125 C 7.117188 -4.632812 7.53125 -4.351562 7.875 -3.96875 C 8.21875 -3.59375 8.390625 -3.085938 8.390625 -2.453125 C 8.390625 -1.941406 8.25 -1.484375 7.96875 -1.078125 C 7.695312 -0.679688 7.273438 -0.367188 6.703125 -0.140625 C 6.128906 0.078125 5.421875 0.1875 4.578125 0.1875 Z M 4.578125 0.1875 "/></g></g></g><g fill="#000000" fill-opacity="1"><g transform="translate(86.076022, 35.389559)"><g><path d="M 4.203125 0.1875 C 3.398438 0.1875 2.765625 -0.046875 2.296875 -0.515625 C 1.835938 -0.992188 1.609375 -1.660156 1.609375 -2.515625 L 1.609375 -4.890625 L 0.34375 -4.890625 L 0.34375 -6.4375 L 1 -6.4375 C 1.269531 -6.4375 1.472656 -6.503906 1.609375 -6.640625 C 1.753906 -6.785156 1.828125 -6.992188 1.828125 -7.265625 L 1.828125 -8.21875 L 3.46875 -8.21875 L 3.46875 -6.5625 L 5.296875 -6.5625 L 5.296875 -4.890625 L 3.46875 -4.890625 L 3.46875 -2.71875 C 3.46875 -1.957031 3.835938 -1.578125 4.578125 -1.578125 C 4.859375 -1.578125 5.097656 -1.617188 5.296875 -1.703125 L 5.296875 -0.015625 C 5.003906 0.117188 4.640625 0.1875 4.203125 0.1875 Z M 4.203125 0.1875 "/></g></g></g><g fill="#000000" fill-opacity="1"><g transform="translate(91.737004, 35.389559)"><g><path d="M 4.421875 0.1875 C 3.691406 0.1875 3.03125 0.03125 2.4375 -0.28125 C 1.84375 -0.59375 1.378906 -1.015625 1.046875 -1.546875 C 0.710938 -2.078125 0.546875 -2.65625 0.546875 -3.28125 C 0.546875 -3.90625 0.710938 -4.484375 1.046875 -5.015625 C 1.378906 -5.546875 1.84375 -5.96875 2.4375 -6.28125 C 3.03125 -6.601562 3.691406 -6.765625 4.421875 -6.765625 C 5.148438 -6.765625 5.804688 -6.601562 6.390625 -6.28125 C 6.984375 -5.96875 7.445312 -5.546875 7.78125 -5.015625 C 8.125 -4.484375 8.296875 -3.90625 8.296875 -3.28125 C 8.296875 -2.65625 8.125 -2.078125 7.78125 -1.546875 C 7.445312 -1.015625 6.984375 -0.59375 6.390625 -0.28125 C 5.804688 0.03125 5.148438 0.1875 4.421875 0.1875 Z M 4.421875 -1.5 C 5.015625 -1.5 5.492188 -1.664062 5.859375 -2 C 6.234375 -2.34375 6.421875 -2.769531 6.421875 -3.28125 C 6.421875 -3.800781 6.234375 -4.226562 5.859375 -4.5625 C 5.492188 -4.90625 5.015625 -5.078125 4.421875 -5.078125 C 3.816406 -5.078125 3.328125 -4.90625 2.953125 -4.5625 C 2.585938 -4.226562 2.40625 -3.800781 2.40625 -3.28125 C 2.40625 -2.769531 2.585938 -2.34375 2.953125 -2 C 3.328125 -1.664062 3.816406 -1.5 4.421875 -1.5 Z M 4.421875 -1.5 "/></g></g></g><g fill="#000000" fill-opacity="1"><g transform="translate(100.305714, 35.389559)"><g><path d="M 0.921875 0 L 0.921875 -6.5625 L 2.34375 -6.5625 L 2.625 -5.921875 L 2.6875 -5.921875 C 3.175781 -6.484375 3.851562 -6.765625 4.71875 -6.765625 C 5.070312 -6.765625 5.359375 -6.722656 5.578125 -6.640625 L 5.578125 -4.78125 C 5.265625 -4.851562 4.941406 -4.890625 4.609375 -4.890625 C 3.398438 -4.890625 2.796875 -4.320312 2.796875 -3.1875 L 2.796875 0 Z M 0.921875 0 "/></g></g></g><g fill="#000000" fill-opacity="1"><g transform="translate(105.940969, 35.389559)"><g><path d="M 8.15625 -3.328125 C 8.15625 -2.992188 8.128906 -2.753906 8.078125 -2.609375 L 2.453125 -2.609375 C 2.597656 -2.242188 2.847656 -1.953125 3.203125 -1.734375 C 3.566406 -1.523438 3.988281 -1.421875 4.46875 -1.421875 C 5.125 -1.421875 5.613281 -1.570312 5.9375 -1.875 L 7.921875 -1.875 C 7.765625 -1.53125 7.523438 -1.195312 7.203125 -0.875 C 6.878906 -0.5625 6.476562 -0.304688 6 -0.109375 C 5.53125 0.0859375 5.007812 0.1875 4.4375 0.1875 C 3.695312 0.1875 3.03125 0.03125 2.4375 -0.28125 C 1.84375 -0.59375 1.378906 -1.015625 1.046875 -1.546875 C 0.710938 -2.078125 0.546875 -2.65625 0.546875 -3.28125 C 0.546875 -3.90625 0.710938 -4.484375 1.046875 -5.015625 C 1.378906 -5.546875 1.84375 -5.96875 2.4375 -6.28125 C 3.03125 -6.601562 3.691406 -6.765625 4.421875 -6.765625 C 5.078125 -6.765625 5.691406 -6.613281 6.265625 -6.3125 C 6.835938 -6.007812 7.296875 -5.59375 7.640625 -5.0625 C 7.984375 -4.539062 8.15625 -3.960938 8.15625 -3.328125 Z M 4.421875 -5.140625 C 3.941406 -5.140625 3.523438 -5.03125 3.171875 -4.8125 C 2.828125 -4.601562 2.585938 -4.304688 2.453125 -3.921875 L 6.3125 -3.921875 C 6.175781 -4.296875 5.929688 -4.59375 5.578125 -4.8125 C 5.234375 -5.03125 4.847656 -5.140625 4.421875 -5.140625 Z M 4.421875 -5.140625 "/></g></g></g><g clip-path="url(#fe03efbd8e)"><path fill="#000000" d="M 36.03125 30.378906 C 32.050781 28.320312 31.34375 22.648438 34.972656 19.816406 C 35.085938 19.726562 35.175781 19.613281 35.242188 19.484375 C 35.308594 19.351562 35.34375 19.214844 35.347656 19.066406 C 35.355469 18.921875 35.328125 18.777344 35.273438 18.644531 C 35.214844 18.507812 35.132812 18.390625 35.023438 18.292969 C 34.398438 17.675781 33.679688 17.195312 32.875 16.847656 C 32.066406 16.5 31.222656 16.316406 30.34375 16.285156 C 27.738281 16.285156 26.644531 17.523438 24.835938 17.523438 C 23.027344 17.523438 21.5625 16.285156 19.308594 16.285156 C 17.058594 16.285156 14.746094 17.625 13.257812 19.917969 C 11.15625 23.152344 11.515625 29.222656 14.914062 34.402344 C 16.113281 36.25 17.753906 38.335938 19.878906 38.351562 C 21.765625 38.351562 22.304688 37.15625 24.867188 37.15625 C 27.429688 37.15625 27.90625 38.351562 29.796875 38.351562 C 31.925781 38.351562 33.636719 36.03125 34.851562 34.164062 C 35.441406 33.261719 35.949219 32.316406 36.371094 31.324219 C 36.445312 31.148438 36.449219 30.96875 36.382812 30.785156 C 36.320312 30.605469 36.199219 30.46875 36.03125 30.378906 Z M 36.03125 30.378906 " fill-opacity="1" fill-rule="evenodd"/></g><g clip-path="url(#7694d2da70)"><path fill="#000000" d="M 25.148438 16.34375 C 26.464844 16 27.542969 15.296875 28.386719 14.226562 C 29.160156 13.246094 29.628906 12.136719 29.792969 10.898438 C 29.808594 10.722656 29.785156 10.558594 29.71875 10.398438 C 29.648438 10.238281 29.546875 10.101562 29.410156 9.996094 C 29.273438 9.886719 29.121094 9.816406 28.949219 9.789062 C 28.777344 9.757812 28.609375 9.769531 28.445312 9.824219 C 27.238281 10.246094 26.222656 10.941406 25.390625 11.914062 C 24.574219 12.882812 24.078125 13.992188 23.90625 15.242188 C 23.890625 15.40625 23.914062 15.566406 23.972656 15.71875 C 24.03125 15.871094 24.125 16.003906 24.246094 16.109375 C 24.367188 16.21875 24.507812 16.296875 24.667969 16.335938 C 24.828125 16.378906 24.988281 16.382812 25.148438 16.34375 Z M 25.148438 16.34375 " fill-opacity="1" fill-rule="evenodd"/></g></svg>