<svg xmlns="http://www.w3.org/2000/svg" xmlns:xlink="http://www.w3.org/1999/xlink" width="203" zoomAndPan="magnify" viewBox="0 0 152.25 49.499998" height="66" preserveAspectRatio="xMidYMid meet" version="1.0"><defs><g/><clipPath id="080d120d01"><path d="M 0.390625 0 L 151.117188 0 L 151.117188 49.003906 L 0.390625 49.003906 Z M 0.390625 0 " clip-rule="nonzero"/></clipPath><clipPath id="82a2cd404f"><path d="M 1.066406 0.09375 L 151.101562 0.09375 L 151.101562 48.410156 L 1.066406 48.410156 Z M 1.066406 0.09375 " clip-rule="nonzero"/></clipPath><clipPath id="b84fd8a5d8"><path d="M 141.992188 48.410156 L 10.171875 48.410156 C 5.15625 48.410156 1.066406 44.324219 1.066406 39.304688 L 1.066406 9.199219 C 1.066406 4.179688 5.15625 0.09375 10.171875 0.09375 L 141.992188 0.09375 C 147.011719 0.09375 151.101562 4.179688 151.101562 9.199219 L 151.101562 39.304688 C 151.101562 44.324219 147.011719 48.410156 141.992188 48.410156 Z M 141.992188 48.410156 " clip-rule="nonzero"/></clipPath><clipPath id="ac254e4668"><path d="M 14.609375 11 L 28 11 L 28 37.5 L 14.609375 37.5 Z M 14.609375 11 " clip-rule="nonzero"/></clipPath><clipPath id="1eac5aad3b"><path d="M 15 24 L 33 24 L 33 37.5 L 15 37.5 Z M 15 24 " clip-rule="nonzero"/></clipPath><clipPath id="82ad19e9bf"><path d="M 15 10.773438 L 33 10.773438 L 33 25 L 15 25 Z M 15 10.773438 " clip-rule="nonzero"/></clipPath></defs><g clip-path="url(#080d120d01)"><path fill="#ffffff" d="M 0.390625 0 L 151.117188 0 L 151.117188 49.003906 L 0.390625 49.003906 Z M 0.390625 0 " fill-opacity="1" fill-rule="nonzero"/></g><g clip-path="url(#82a2cd404f)"><g clip-path="url(#b84fd8a5d8)"><path fill="#ffffff" d="M 1.066406 0.09375 L 151.101562 0.09375 L 151.101562 48.410156 L 1.066406 48.410156 Z M 1.066406 0.09375 " fill-opacity="1" fill-rule="nonzero"/></g></g><g clip-path="url(#ac254e4668)"><path fill="#428ecc" d="M 15.105469 11.378906 C 14.753906 11.800781 14.597656 12.285156 14.628906 12.832031 L 14.628906 35.664062 C 14.597656 36.210938 14.753906 36.695312 15.105469 37.117188 L 15.183594 37.1875 L 27.972656 24.394531 L 27.972656 24.097656 L 15.183594 11.304688 Z M 15.105469 11.378906 " fill-opacity="1" fill-rule="nonzero"/></g><path fill="#fcc018" d="M 32.234375 28.667969 L 27.972656 24.402344 L 27.972656 24.101562 L 32.234375 19.824219 L 32.335938 19.878906 L 37.386719 22.75 C 38.832031 23.574219 38.832031 24.910156 37.386719 25.734375 L 32.335938 28.601562 Z M 32.234375 28.667969 " fill-opacity="1" fill-rule="nonzero"/><g clip-path="url(#1eac5aad3b)"><path fill="#e84839" d="M 32.335938 28.609375 L 27.972656 24.246094 L 15.105469 37.117188 C 15.582031 37.621094 16.367188 37.667969 17.25 37.175781 Z M 32.335938 28.609375 " fill-opacity="1" fill-rule="nonzero"/></g><g clip-path="url(#82ad19e9bf)"><path fill="#6cb74e" d="M 32.335938 19.886719 L 17.25 11.316406 C 16.367188 10.8125 15.589844 10.875 15.105469 11.378906 L 27.972656 24.246094 Z M 32.335938 19.886719 " fill-opacity="1" fill-rule="nonzero"/></g><g fill="#000000" fill-opacity="1"><g transform="translate(46.286723, 21.28206)"><g><path d="M 5.625 -4.40625 L 9.765625 -4.40625 L 9.765625 0 L 9.125 0 L 8.890625 -1.4375 C 8.566406 -0.988281 8.101562 -0.609375 7.5 -0.296875 C 6.90625 0.00390625 6.191406 0.15625 5.359375 0.15625 C 4.503906 0.15625 3.71875 -0.046875 3 -0.453125 C 2.289062 -0.867188 1.726562 -1.429688 1.3125 -2.140625 C 0.894531 -2.859375 0.6875 -3.644531 0.6875 -4.5 C 0.6875 -5.363281 0.894531 -6.148438 1.3125 -6.859375 C 1.726562 -7.578125 2.296875 -8.140625 3.015625 -8.546875 C 3.742188 -8.960938 4.539062 -9.171875 5.40625 -9.171875 C 6.125 -9.171875 6.773438 -9.035156 7.359375 -8.765625 C 7.941406 -8.492188 8.421875 -8.132812 8.796875 -7.6875 C 9.179688 -7.238281 9.453125 -6.757812 9.609375 -6.25 L 8.640625 -6.25 C 8.035156 -7.59375 6.957031 -8.265625 5.40625 -8.265625 C 4.707031 -8.265625 4.070312 -8.101562 3.5 -7.78125 C 2.925781 -7.46875 2.472656 -7.023438 2.140625 -6.453125 C 1.816406 -5.878906 1.65625 -5.226562 1.65625 -4.5 C 1.65625 -3.769531 1.816406 -3.117188 2.140625 -2.546875 C 2.472656 -1.984375 2.925781 -1.539062 3.5 -1.21875 C 4.070312 -0.90625 4.707031 -0.75 5.40625 -0.75 C 6.050781 -0.75 6.625 -0.859375 7.125 -1.078125 C 7.625 -1.304688 8.019531 -1.628906 8.3125 -2.046875 C 8.613281 -2.472656 8.78125 -2.96875 8.8125 -3.53125 L 5.625 -3.53125 Z M 5.625 -4.40625 "/></g></g></g><g fill="#000000" fill-opacity="1"><g transform="translate(56.823941, 21.28206)"><g><path d="M 7.421875 -3.40625 C 7.421875 -3.175781 7.398438 -2.96875 7.359375 -2.78125 L 1.578125 -2.78125 C 1.671875 -2.132812 1.945312 -1.625 2.40625 -1.25 C 2.875 -0.875 3.441406 -0.6875 4.109375 -0.6875 C 5.078125 -0.6875 5.785156 -1.015625 6.234375 -1.671875 L 7.15625 -1.671875 C 6.925781 -1.128906 6.539062 -0.6875 6 -0.34375 C 5.457031 -0.0078125 4.8125 0.15625 4.0625 0.15625 C 3.445312 0.15625 2.878906 0.015625 2.359375 -0.265625 C 1.835938 -0.546875 1.421875 -0.941406 1.109375 -1.453125 C 0.804688 -1.972656 0.65625 -2.5625 0.65625 -3.21875 C 0.65625 -3.863281 0.8125 -4.441406 1.125 -4.953125 C 1.445312 -5.472656 1.867188 -5.875 2.390625 -6.15625 C 2.921875 -6.445312 3.484375 -6.59375 4.078125 -6.59375 C 4.671875 -6.59375 5.222656 -6.453125 5.734375 -6.171875 C 6.253906 -5.890625 6.664062 -5.503906 6.96875 -5.015625 C 7.269531 -4.523438 7.421875 -3.988281 7.421875 -3.40625 Z M 4.0625 -5.75 C 3.65625 -5.75 3.269531 -5.660156 2.90625 -5.484375 C 2.550781 -5.304688 2.253906 -5.050781 2.015625 -4.71875 C 1.773438 -4.394531 1.628906 -4.023438 1.578125 -3.609375 L 6.53125 -3.609375 C 6.488281 -4.003906 6.351562 -4.363281 6.125 -4.6875 C 5.90625 -5.019531 5.613281 -5.28125 5.25 -5.46875 C 4.882812 -5.65625 4.488281 -5.75 4.0625 -5.75 Z M 4.0625 -5.75 "/></g></g></g><g fill="#000000" fill-opacity="1"><g transform="translate(64.646427, 21.28206)"><g><path d="M 3.921875 0.15625 C 3.273438 0.15625 2.757812 -0.046875 2.375 -0.453125 C 1.988281 -0.859375 1.796875 -1.421875 1.796875 -2.140625 L 1.796875 -5.59375 L 0.390625 -5.59375 L 0.390625 -6.4375 L 1.109375 -6.4375 C 1.660156 -6.4375 1.9375 -6.710938 1.9375 -7.265625 L 1.9375 -8.15625 L 2.6875 -8.15625 L 2.6875 -6.4375 L 4.6875 -6.4375 L 4.6875 -5.59375 L 2.6875 -5.59375 L 2.6875 -2.140625 C 2.6875 -1.660156 2.796875 -1.296875 3.015625 -1.046875 C 3.234375 -0.804688 3.550781 -0.6875 3.96875 -0.6875 C 4.226562 -0.6875 4.46875 -0.738281 4.6875 -0.84375 L 4.6875 -0.015625 C 4.46875 0.0976562 4.210938 0.15625 3.921875 0.15625 Z M 3.921875 0.15625 "/></g></g></g><g fill="#000000" fill-opacity="1"><g transform="translate(69.702711, 21.28206)"><g/></g></g><g fill="#000000" fill-opacity="1"><g transform="translate(73.04781, 21.28206)"><g><path d="M 2.015625 0 L 1.125 0 L 1.125 -6.4375 L 2.015625 -6.4375 Z M 1.5625 -7.421875 C 1.375 -7.421875 1.21875 -7.476562 1.09375 -7.59375 C 0.976562 -7.71875 0.921875 -7.863281 0.921875 -8.03125 C 0.921875 -8.207031 0.976562 -8.351562 1.09375 -8.46875 C 1.21875 -8.59375 1.375 -8.65625 1.5625 -8.65625 C 1.75 -8.65625 1.898438 -8.59375 2.015625 -8.46875 C 2.140625 -8.351562 2.203125 -8.207031 2.203125 -8.03125 C 2.203125 -7.863281 2.140625 -7.71875 2.015625 -7.59375 C 1.898438 -7.476562 1.75 -7.421875 1.5625 -7.421875 Z M 1.5625 -7.421875 "/></g></g></g><g fill="#000000" fill-opacity="1"><g transform="translate(75.92973, 21.28206)"><g><path d="M 3.921875 0.15625 C 3.273438 0.15625 2.757812 -0.046875 2.375 -0.453125 C 1.988281 -0.859375 1.796875 -1.421875 1.796875 -2.140625 L 1.796875 -5.59375 L 0.390625 -5.59375 L 0.390625 -6.4375 L 1.109375 -6.4375 C 1.660156 -6.4375 1.9375 -6.710938 1.9375 -7.265625 L 1.9375 -8.15625 L 2.6875 -8.15625 L 2.6875 -6.4375 L 4.6875 -6.4375 L 4.6875 -5.59375 L 2.6875 -5.59375 L 2.6875 -2.140625 C 2.6875 -1.660156 2.796875 -1.296875 3.015625 -1.046875 C 3.234375 -0.804688 3.550781 -0.6875 3.96875 -0.6875 C 4.226562 -0.6875 4.46875 -0.738281 4.6875 -0.84375 L 4.6875 -0.015625 C 4.46875 0.0976562 4.210938 0.15625 3.921875 0.15625 Z M 3.921875 0.15625 "/></g></g></g><g fill="#000000" fill-opacity="1"><g transform="translate(80.986014, 21.28206)"><g/></g></g><g fill="#000000" fill-opacity="1"><g transform="translate(84.331113, 21.28206)"><g><path d="M 4.109375 0.15625 C 3.492188 0.15625 2.921875 0.015625 2.390625 -0.265625 C 1.859375 -0.554688 1.4375 -0.957031 1.125 -1.46875 C 0.8125 -1.988281 0.65625 -2.570312 0.65625 -3.21875 C 0.65625 -3.863281 0.8125 -4.441406 1.125 -4.953125 C 1.4375 -5.472656 1.859375 -5.875 2.390625 -6.15625 C 2.921875 -6.445312 3.492188 -6.59375 4.109375 -6.59375 C 4.722656 -6.59375 5.296875 -6.445312 5.828125 -6.15625 C 6.359375 -5.875 6.78125 -5.472656 7.09375 -4.953125 C 7.40625 -4.441406 7.5625 -3.863281 7.5625 -3.21875 C 7.5625 -2.570312 7.40625 -1.988281 7.09375 -1.46875 C 6.78125 -0.957031 6.359375 -0.554688 5.828125 -0.265625 C 5.296875 0.015625 4.722656 0.15625 4.109375 0.15625 Z M 4.109375 -0.6875 C 4.566406 -0.6875 4.988281 -0.789062 5.375 -1 C 5.769531 -1.21875 6.082031 -1.519531 6.3125 -1.90625 C 6.539062 -2.289062 6.65625 -2.726562 6.65625 -3.21875 C 6.65625 -3.707031 6.539062 -4.144531 6.3125 -4.53125 C 6.082031 -4.914062 5.769531 -5.210938 5.375 -5.421875 C 4.988281 -5.640625 4.566406 -5.75 4.109375 -5.75 C 3.640625 -5.75 3.207031 -5.640625 2.8125 -5.421875 C 2.425781 -5.210938 2.117188 -4.914062 1.890625 -4.53125 C 1.671875 -4.144531 1.5625 -3.707031 1.5625 -3.21875 C 1.5625 -2.726562 1.671875 -2.289062 1.890625 -1.90625 C 2.117188 -1.519531 2.425781 -1.21875 2.8125 -1 C 3.207031 -0.789062 3.640625 -0.6875 4.109375 -0.6875 Z M 4.109375 -0.6875 "/></g></g></g><g fill="#000000" fill-opacity="1"><g transform="translate(92.282258, 21.28206)"><g><path d="M 1.125 0 L 1.125 -6.4375 L 1.796875 -6.4375 L 2.015625 -5.5625 L 2.078125 -5.5625 C 2.273438 -5.84375 2.566406 -6.082031 2.953125 -6.28125 C 3.347656 -6.488281 3.828125 -6.59375 4.390625 -6.59375 C 4.953125 -6.59375 5.460938 -6.460938 5.921875 -6.203125 C 6.378906 -5.953125 6.734375 -5.59375 6.984375 -5.125 C 7.242188 -4.65625 7.375 -4.109375 7.375 -3.484375 L 7.375 0 L 6.46875 0 L 6.46875 -3.453125 C 6.46875 -4.171875 6.269531 -4.734375 5.875 -5.140625 C 5.488281 -5.546875 4.960938 -5.75 4.296875 -5.75 C 3.597656 -5.75 3.039062 -5.546875 2.625 -5.140625 C 2.21875 -4.734375 2.015625 -4.171875 2.015625 -3.453125 L 2.015625 0 Z M 1.125 0 "/></g></g></g><g fill="#000000" fill-opacity="1"><g transform="translate(46.286723, 35.389559)"><g><path d="M 5.671875 -4.75 L 10.453125 -4.75 L 10.453125 0 L 9.34375 0 L 9.03125 -1.140625 C 8.675781 -0.765625 8.203125 -0.445312 7.609375 -0.1875 C 7.023438 0.0625 6.390625 0.1875 5.703125 0.1875 C 4.722656 0.1875 3.84375 -0.0195312 3.0625 -0.4375 C 2.289062 -0.851562 1.6875 -1.414062 1.25 -2.125 C 0.820312 -2.84375 0.609375 -3.632812 0.609375 -4.5 C 0.609375 -5.375 0.820312 -6.164062 1.25 -6.875 C 1.6875 -7.59375 2.285156 -8.160156 3.046875 -8.578125 C 3.816406 -8.992188 4.675781 -9.203125 5.625 -9.203125 C 6.457031 -9.203125 7.203125 -9.046875 7.859375 -8.734375 C 8.523438 -8.429688 9.0625 -8.035156 9.46875 -7.546875 C 9.882812 -7.066406 10.15625 -6.570312 10.28125 -6.0625 L 8.234375 -6.0625 C 8.066406 -6.40625 7.765625 -6.707031 7.328125 -6.96875 C 6.898438 -7.226562 6.332031 -7.359375 5.625 -7.359375 C 5.050781 -7.359375 4.53125 -7.226562 4.0625 -6.96875 C 3.59375 -6.71875 3.222656 -6.375 2.953125 -5.9375 C 2.691406 -5.5 2.5625 -5.019531 2.5625 -4.5 C 2.5625 -3.988281 2.691406 -3.515625 2.953125 -3.078125 C 3.210938 -2.640625 3.570312 -2.289062 4.03125 -2.03125 C 4.5 -1.769531 5.019531 -1.640625 5.59375 -1.640625 C 6.375 -1.640625 6.992188 -1.785156 7.453125 -2.078125 C 7.910156 -2.378906 8.21875 -2.722656 8.375 -3.109375 L 5.671875 -3.109375 Z M 5.671875 -4.75 "/></g></g></g><g fill="#000000" fill-opacity="1"><g transform="translate(57.377179, 35.389559)"><g><path d="M 4.421875 0.1875 C 3.691406 0.1875 3.03125 0.03125 2.4375 -0.28125 C 1.84375 -0.59375 1.378906 -1.015625 1.046875 -1.546875 C 0.710938 -2.078125 0.546875 -2.65625 0.546875 -3.28125 C 0.546875 -3.90625 0.710938 -4.484375 1.046875 -5.015625 C 1.378906 -5.546875 1.84375 -5.96875 2.4375 -6.28125 C 3.03125 -6.601562 3.691406 -6.765625 4.421875 -6.765625 C 5.148438 -6.765625 5.804688 -6.601562 6.390625 -6.28125 C 6.984375 -5.96875 7.445312 -5.546875 7.78125 -5.015625 C 8.125 -4.484375 8.296875 -3.90625 8.296875 -3.28125 C 8.296875 -2.65625 8.125 -2.078125 7.78125 -1.546875 C 7.445312 -1.015625 6.984375 -0.59375 6.390625 -0.28125 C 5.804688 0.03125 5.148438 0.1875 4.421875 0.1875 Z M 4.421875 -1.5 C 5.015625 -1.5 5.492188 -1.664062 5.859375 -2 C 6.234375 -2.34375 6.421875 -2.769531 6.421875 -3.28125 C 6.421875 -3.800781 6.234375 -4.226562 5.859375 -4.5625 C 5.492188 -4.90625 5.015625 -5.078125 4.421875 -5.078125 C 3.816406 -5.078125 3.328125 -4.90625 2.953125 -4.5625 C 2.585938 -4.226562 2.40625 -3.800781 2.40625 -3.28125 C 2.40625 -2.769531 2.585938 -2.34375 2.953125 -2 C 3.328125 -1.664062 3.816406 -1.5 4.421875 -1.5 Z M 4.421875 -1.5 "/></g></g></g><g fill="#000000" fill-opacity="1"><g transform="translate(65.945892, 35.389559)"><g><path d="M 4.421875 0.1875 C 3.691406 0.1875 3.03125 0.03125 2.4375 -0.28125 C 1.84375 -0.59375 1.378906 -1.015625 1.046875 -1.546875 C 0.710938 -2.078125 0.546875 -2.65625 0.546875 -3.28125 C 0.546875 -3.90625 0.710938 -4.484375 1.046875 -5.015625 C 1.378906 -5.546875 1.84375 -5.96875 2.4375 -6.28125 C 3.03125 -6.601562 3.691406 -6.765625 4.421875 -6.765625 C 5.148438 -6.765625 5.804688 -6.601562 6.390625 -6.28125 C 6.984375 -5.96875 7.445312 -5.546875 7.78125 -5.015625 C 8.125 -4.484375 8.296875 -3.90625 8.296875 -3.28125 C 8.296875 -2.65625 8.125 -2.078125 7.78125 -1.546875 C 7.445312 -1.015625 6.984375 -0.59375 6.390625 -0.28125 C 5.804688 0.03125 5.148438 0.1875 4.421875 0.1875 Z M 4.421875 -1.5 C 5.015625 -1.5 5.492188 -1.664062 5.859375 -2 C 6.234375 -2.34375 6.421875 -2.769531 6.421875 -3.28125 C 6.421875 -3.800781 6.234375 -4.226562 5.859375 -4.5625 C 5.492188 -4.90625 5.015625 -5.078125 4.421875 -5.078125 C 3.816406 -5.078125 3.328125 -4.90625 2.953125 -4.5625 C 2.585938 -4.226562 2.40625 -3.800781 2.40625 -3.28125 C 2.40625 -2.769531 2.585938 -2.34375 2.953125 -2 C 3.328125 -1.664062 3.816406 -1.5 4.421875 -1.5 Z M 4.421875 -1.5 "/></g></g></g><g fill="#000000" fill-opacity="1"><g transform="translate(74.514606, 35.389559)"><g><path d="M 4.28125 2.453125 C 3.53125 2.453125 2.898438 2.328125 2.390625 2.078125 C 1.890625 1.835938 1.519531 1.550781 1.28125 1.21875 C 1.039062 0.894531 0.894531 0.597656 0.84375 0.328125 L 2.78125 0.328125 C 3.019531 0.660156 3.519531 0.828125 4.28125 0.828125 C 4.863281 0.828125 5.316406 0.695312 5.640625 0.4375 C 5.960938 0.1875 6.125 -0.179688 6.125 -0.671875 L 6.125 -0.984375 L 6.0625 -0.984375 C 6 -0.890625 5.867188 -0.785156 5.671875 -0.671875 C 5.484375 -0.554688 5.242188 -0.453125 4.953125 -0.359375 C 4.660156 -0.273438 4.34375 -0.234375 4 -0.234375 C 3.332031 -0.234375 2.734375 -0.378906 2.203125 -0.671875 C 1.679688 -0.960938 1.273438 -1.359375 0.984375 -1.859375 C 0.691406 -2.359375 0.546875 -2.910156 0.546875 -3.515625 C 0.546875 -4.109375 0.691406 -4.648438 0.984375 -5.140625 C 1.273438 -5.640625 1.679688 -6.035156 2.203125 -6.328125 C 2.722656 -6.617188 3.316406 -6.765625 3.984375 -6.765625 C 4.898438 -6.765625 5.648438 -6.484375 6.234375 -5.921875 L 6.296875 -5.921875 L 6.578125 -6.5625 L 8 -6.5625 L 8 -0.71875 C 8 0.269531 7.675781 1.046875 7.03125 1.609375 C 6.382812 2.171875 5.46875 2.453125 4.28125 2.453125 Z M 4.28125 -1.859375 C 4.8125 -1.859375 5.25 -2.015625 5.59375 -2.328125 C 5.945312 -2.640625 6.125 -3.03125 6.125 -3.5 C 6.125 -3.96875 5.945312 -4.359375 5.59375 -4.671875 C 5.25 -4.984375 4.8125 -5.140625 4.28125 -5.140625 C 3.726562 -5.140625 3.273438 -4.984375 2.921875 -4.671875 C 2.578125 -4.359375 2.40625 -3.96875 2.40625 -3.5 C 2.40625 -3.03125 2.578125 -2.640625 2.921875 -2.328125 C 3.273438 -2.015625 3.726562 -1.859375 4.28125 -1.859375 Z M 4.28125 -1.859375 "/></g></g></g><g fill="#000000" fill-opacity="1"><g transform="translate(83.173378, 35.389559)"><g><path d="M 2.859375 0 L 0.984375 0 L 0.984375 -9.015625 L 2.859375 -9.015625 Z M 2.859375 0 "/></g></g></g><g fill="#000000" fill-opacity="1"><g transform="translate(86.762926, 35.389559)"><g><path d="M 8.15625 -3.328125 C 8.15625 -2.992188 8.128906 -2.753906 8.078125 -2.609375 L 2.453125 -2.609375 C 2.597656 -2.242188 2.847656 -1.953125 3.203125 -1.734375 C 3.566406 -1.523438 3.988281 -1.421875 4.46875 -1.421875 C 5.125 -1.421875 5.613281 -1.570312 5.9375 -1.875 L 7.921875 -1.875 C 7.765625 -1.53125 7.523438 -1.195312 7.203125 -0.875 C 6.878906 -0.5625 6.476562 -0.304688 6 -0.109375 C 5.53125 0.0859375 5.007812 0.1875 4.4375 0.1875 C 3.695312 0.1875 3.03125 0.03125 2.4375 -0.28125 C 1.84375 -0.59375 1.378906 -1.015625 1.046875 -1.546875 C 0.710938 -2.078125 0.546875 -2.65625 0.546875 -3.28125 C 0.546875 -3.90625 0.710938 -4.484375 1.046875 -5.015625 C 1.378906 -5.546875 1.84375 -5.96875 2.4375 -6.28125 C 3.03125 -6.601562 3.691406 -6.765625 4.421875 -6.765625 C 5.078125 -6.765625 5.691406 -6.613281 6.265625 -6.3125 C 6.835938 -6.007812 7.296875 -5.59375 7.640625 -5.0625 C 7.984375 -4.539062 8.15625 -3.960938 8.15625 -3.328125 Z M 4.421875 -5.140625 C 3.941406 -5.140625 3.523438 -5.03125 3.171875 -4.8125 C 2.828125 -4.601562 2.585938 -4.304688 2.453125 -3.921875 L 6.3125 -3.921875 C 6.175781 -4.296875 5.929688 -4.59375 5.578125 -4.8125 C 5.234375 -5.03125 4.847656 -5.140625 4.421875 -5.140625 Z M 4.421875 -5.140625 "/></g></g></g><g fill="#000000" fill-opacity="1"><g transform="translate(95.20298, 35.389559)"><g/></g></g><g fill="#000000" fill-opacity="1"><g transform="translate(98.805395, 35.389559)"><g><path d="M 5.453125 -9.015625 C 6.117188 -9.015625 6.707031 -8.882812 7.21875 -8.625 C 7.726562 -8.363281 8.117188 -8 8.390625 -7.53125 C 8.671875 -7.0625 8.8125 -6.523438 8.8125 -5.921875 C 8.8125 -5.316406 8.671875 -4.78125 8.390625 -4.3125 C 8.117188 -3.851562 7.726562 -3.488281 7.21875 -3.21875 C 6.707031 -2.957031 6.117188 -2.828125 5.453125 -2.828125 L 3.0625 -2.828125 L 3.0625 0 L 1.109375 0 L 1.109375 -9.015625 Z M 5.375 -4.71875 C 5.820312 -4.71875 6.179688 -4.828125 6.453125 -5.046875 C 6.722656 -5.265625 6.859375 -5.554688 6.859375 -5.921875 C 6.859375 -6.285156 6.722656 -6.578125 6.453125 -6.796875 C 6.179688 -7.015625 5.820312 -7.125 5.375 -7.125 L 3.0625 -7.125 L 3.0625 -4.71875 Z M 5.375 -4.71875 "/></g></g></g><g fill="#000000" fill-opacity="1"><g transform="translate(107.953079, 35.389559)"><g><path d="M 2.859375 0 L 0.984375 0 L 0.984375 -9.015625 L 2.859375 -9.015625 Z M 2.859375 0 "/></g></g></g><g fill="#000000" fill-opacity="1"><g transform="translate(111.542629, 35.389559)"><g><path d="M 4.078125 -6.765625 C 5.148438 -6.765625 5.96875 -6.492188 6.53125 -5.953125 C 7.09375 -5.421875 7.375 -4.71875 7.375 -3.84375 L 7.375 0 L 5.96875 0 L 5.671875 -0.640625 L 5.609375 -0.640625 C 5.398438 -0.429688 5.101562 -0.238281 4.71875 -0.0625 C 4.332031 0.101562 3.84375 0.1875 3.25 0.1875 C 2.707031 0.1875 2.226562 0.0976562 1.8125 -0.078125 C 1.40625 -0.253906 1.09375 -0.5 0.875 -0.8125 C 0.65625 -1.125 0.546875 -1.472656 0.546875 -1.859375 C 0.546875 -2.273438 0.664062 -2.644531 0.90625 -2.96875 C 1.15625 -3.300781 1.507812 -3.554688 1.96875 -3.734375 C 2.4375 -3.921875 3.003906 -4.015625 3.671875 -4.015625 L 5.515625 -4.015625 L 5.515625 -4.0625 C 5.515625 -4.375 5.394531 -4.628906 5.15625 -4.828125 C 4.914062 -5.035156 4.566406 -5.140625 4.109375 -5.140625 C 3.742188 -5.140625 3.457031 -5.09375 3.25 -5 C 3.050781 -4.90625 2.894531 -4.765625 2.78125 -4.578125 L 0.921875 -4.578125 C 1.046875 -5.253906 1.382812 -5.785156 1.9375 -6.171875 C 2.488281 -6.566406 3.203125 -6.765625 4.078125 -6.765625 Z M 3.625 -1.296875 C 4.21875 -1.296875 4.679688 -1.421875 5.015625 -1.671875 C 5.347656 -1.921875 5.515625 -2.21875 5.515625 -2.5625 L 5.515625 -2.765625 L 3.65625 -2.765625 C 3.226562 -2.765625 2.914062 -2.695312 2.71875 -2.5625 C 2.519531 -2.4375 2.421875 -2.257812 2.421875 -2.03125 C 2.421875 -1.8125 2.515625 -1.632812 2.703125 -1.5 C 2.890625 -1.363281 3.195312 -1.296875 3.625 -1.296875 Z M 3.625 -1.296875 "/></g></g></g><g fill="#000000" fill-opacity="1"><g transform="translate(119.519507, 35.389559)"><g><path d="M 6.015625 -6.5625 L 7.9375 -6.5625 L 4.6875 0.25 C 4.320312 1.019531 3.9375 1.566406 3.53125 1.890625 C 3.132812 2.210938 2.644531 2.375 2.0625 2.375 C 1.65625 2.375 1.332031 2.328125 1.09375 2.234375 L 1.09375 0.515625 C 1.300781 0.585938 1.554688 0.625 1.859375 0.625 C 2.109375 0.625 2.335938 0.5625 2.546875 0.4375 C 2.765625 0.320312 2.921875 0.148438 3.015625 -0.078125 L 3.125 -0.359375 L 0.140625 -6.5625 L 2.15625 -6.5625 L 4.125 -2.078125 Z M 6.015625 -6.5625 "/></g></g></g></svg>